<svg width="180" height="173" viewBox="0 0 180 173" fill="none" xmlns="http://www.w3.org/2000/svg">
<line x1="1.5" y1="-6.55671e-08" x2="1.50001" y2="170" stroke="#BFD5EF" stroke-width="3"/>
<line x1="180" y1="171.5" y2="171.5" stroke="#BFD5EF" stroke-width="3"/>
<circle cx="89.5" cy="89.5" r="46.5" fill="#4248F6"/>
<line x1="136" y1="92.5" x2="90" y2="92.5" stroke="#BFD5EF" stroke-width="3"/>
<line x1="88.5" y1="136" x2="88.5" y2="43" stroke="#BFD5EF" stroke-width="3"/>
<line x1="21.7403" y1="150.563" x2="1.06102" y2="171.242" stroke="#BFD5EF" stroke-width="3"/>
<path d="M30.648 146H41.088V143.384H34.584V143.312L40.776 136.304V133.688H31.368V136.256H36.984V136.328L30.648 143.504V146Z" fill="#BFD5EF"/>
<path d="M147.2 85.688H144.056V98H147.32V92C147.32 89.408 148.856 88.28 150.992 88.496H151.064V85.64C150.872 85.568 150.656 85.544 150.296 85.544C148.856 85.544 148.016 86.264 147.272 87.656H147.2V85.688Z" fill="#BFD5EF"/>
<path d="M86.664 30.36C88.392 30.36 89.616 29.568 90.336 28.392H90.384V30H93.528V12.84H90.264V19.176H90.192C89.52 18.144 88.44 17.352 86.712 17.352C83.64 17.352 81.456 20.016 81.456 23.856C81.456 27.84 83.568 30.36 86.664 30.36ZM87.384 27.624C85.704 27.624 84.768 26.232 84.768 23.856C84.768 21.576 85.68 19.992 87.48 19.992C89.568 19.992 90.336 21.576 90.336 23.928C90.336 26.184 89.328 27.624 87.384 27.624Z" fill="#BFD5EF"/>
</svg>
