<svg width="78" height="96" viewBox="0 0 78 96" fill="none" xmlns="http://www.w3.org/2000/svg">
<path d="M61.9482 32.8373L44.0113 48.7522L43.7395 48.9933L43.8849 49.3262L53.4781 71.3033L32.7992 59.1622L32.486 58.9783L32.2142 59.2194L14.2773 75.1343L19.434 51.7158L19.5121 51.361L19.1989 51.1771L-1.47998 39.036L22.3859 36.7036L22.7474 36.6683L22.8256 36.3135L27.9823 12.895L37.5755 34.872L37.7208 35.205L38.0823 35.1696L61.9482 32.8373Z" fill="#162411" stroke="#B1FF74"/>
<path d="M12.3164 44.618L17.7492 61.3387L17.8615 61.6842H18.2247H35.8059L21.5824 72.0181L21.2885 72.2316L21.4008 72.5771L26.8337 89.2977L12.6102 78.9638L12.3164 78.7503L12.0225 78.9638L-2.20096 89.2977L3.23191 72.5771L3.34416 72.2316L3.05027 72.0181L-11.1731 61.6842H6.40796H6.77124L6.88349 61.3387L12.3164 44.618Z" fill="#B1FF74" stroke="#162411"/>
</svg>
