<svg width="108" height="93" viewBox="0 0 108 93" fill="none" xmlns="http://www.w3.org/2000/svg">
<path d="M88.9482 32.8373L71.0113 48.7522L70.7395 48.9933L70.8849 49.3262L80.4781 71.3033L59.7992 59.1622L59.486 58.9783L59.2142 59.2194L41.2773 75.1343L46.434 51.7158L46.5121 51.361L46.1989 51.1771L25.52 39.036L49.3859 36.7036L49.7474 36.6683L49.8256 36.3135L54.9823 12.895L64.5755 34.872L64.7208 35.205L65.0823 35.1696L88.9482 32.8373Z" fill="#162411" stroke="#B1FF74"/>
<path d="M81.3164 5.61804L86.7492 22.3387L86.8615 22.6842H87.2247H104.806L90.5824 33.0181L90.2885 33.2316L90.4008 33.5771L95.8337 50.2977L81.6102 39.9638L81.3164 39.7503L81.0225 39.9638L66.799 50.2977L72.2319 33.5771L72.3442 33.2316L72.0503 33.0181L57.8269 22.6842H75.408H75.7712L75.8835 22.3387L81.3164 5.61804Z" fill="#B1FF74" stroke="#162411"/>
<path d="M14.5 41.618L17.2799 50.1738L17.3922 50.5193H17.7555H26.7515L19.4735 55.807L19.1796 56.0205L19.2919 56.366L22.0718 64.9217L14.7939 59.634L14.5 59.4205L14.2061 59.634L6.92817 64.9217L9.70809 56.366L9.82035 56.0205L9.52646 55.807L2.24852 50.5193H11.2445H11.6078L11.7201 50.1738L14.5 41.618Z" fill="#B1FF74" stroke="#162411"/>
</svg>
